<svg t="1675159910093" class="icon" viewBox="0 0 1024 1024" version="1.1" xmlns="http://www.w3.org/2000/svg" p-id="10091" width="200" height="200"><path d="M304.44 496.21c-8.95 0-16.21-7.26-16.21-16.21 0-33.33 6.84-65.55 20.33-95.75 3.64-8.18 13.24-11.84 21.41-8.19 8.18 3.65 11.84 13.24 8.19 21.41-11.62 26.02-17.51 53.79-17.51 82.54-0.01 8.95-7.26 16.2-16.21 16.2z" fill="#FFFFFF" p-id="10092"></path><path d="M942.35 502.92H874.4v-93.43h63.2c2.62 0 4.75 2.13 4.75 4.75v88.68z" fill="#E2696C" p-id="10093"></path><path d="M942.35 511.42H874.4v-93.43h63.2c2.62 0 4.75 2.13 4.75 4.75v88.68z" fill="#E2696C" p-id="10094"></path><path d="M959.33 528.4H857.4V400.99H902c31.62 0 57.34 25.72 57.34 57.34v70.07z m-67.95-33.97h33.98v-36.1c0-12.88-10.48-23.36-23.36-23.36h-10.62v59.46zM780.96 401c-9.38 0-16.99-7.61-16.99-16.99V239.6c0-32.79-26.67-59.46-59.46-59.46H154.52c-32.81 0-61.58 28.78-61.58 61.58v110.42c0 9.38-7.61 16.99-16.99 16.99s-16.99-7.61-16.99-16.99V241.73c0-51.79 43.76-95.55 95.56-95.55h549.99c51.52 0 93.43 41.91 93.43 93.43v144.41c0.01 9.37-7.6 16.98-16.98 16.98z" fill="#5E125C" p-id="10095"></path><path d="M749.38 233.71c0-29.58-23.5-53.56-52.48-53.56H155.05c-34.31 0-62.13 28.39-62.13 63.41V770.9c0 50.43 38.94 88.77 79.27 88.77H799.1c40.33 0 66.78-38.34 66.78-88.77l-0.43-415.43c-5.23-37.36-16.33-22.65-32.86-56.41h-83.22v-65.35z" fill="#FFC963" p-id="10096"></path><path d="M865.9 746.74V511.42h-84.67c-53.78 0-99.92 42.08-100.9 95.85-1 54.79 43.11 99.51 97.67 99.51h11.47v43.93c0 13.27-10.75 24.02-24.02 24.02h-591.6c-41.16 0-80.9-38.34-80.9-88.77v84.94c0 50.43 39.74 88.77 80.9 88.77h640.89c61.24 0 51.16-66.36 51.16-112.93z" fill="#FFC963" opacity=".39" p-id="10097"></path><path d="M812.81 880.68H158.76c-54.1 0-102.07-43.46-102.07-92.95v-189c0-9.38 7.61-16.99 16.99-16.99s16.99 7.61 16.99 16.99v189c0 33.79 36.95 58.97 68.09 58.97h654.05c31.75 0 50.82-24.68 50.82-58.97v-53.09c0-9.38 7.61-16.99 16.99-16.99s16.99 7.61 16.99 16.99v53.09c0 52.9-34.35 92.95-84.8 92.95zM880.62 658.19c-9.38 0-16.99-7.61-16.99-16.99V380c0-29.85-16.34-59.94-50.82-59.94H237.34c-9.38 0-16.99-7.61-16.99-16.99s7.61-16.99 16.99-16.99h575.48c49.63 0 84.8 39.44 84.8 93.91v261.2c-0.01 9.39-7.62 17-17 17zM73.68 437.34c-9.38 0-16.99-7.61-16.99-16.99V224.99c0-9.38 7.61-16.99 16.99-16.99s16.99 7.61 16.99 16.99v195.36c0 9.39-7.6 16.99-16.99 16.99zM73.68 556.26c-9.38 0-16.99-7.61-16.99-16.99v-59.46c0-9.38 7.61-16.99 16.99-16.99s16.99 7.61 16.99 16.99v59.46c0 9.38-7.6 16.99-16.99 16.99z" fill="#5E125C" p-id="10098"></path><path d="M840.42 299.06H186.37c-18.69 0-33.98-15.29-33.98-33.98v-5.76c0-20.27 16.43-36.71 36.71-36.71h574.87c42.22 0.01 76.45 34.23 76.45 76.45z" fill="#FFFFFF" p-id="10099"></path><path d="M857.4 316.05H186.37c-28.1 0-50.96-22.86-50.96-50.96v-5.76c0-29.61 24.09-53.7 53.7-53.7h574.86c51.52 0 93.43 41.91 93.43 93.43v16.99zM189.1 239.6c-10.87 0-19.72 8.85-19.72 19.72v5.76c0 9.37 7.62 16.99 16.99 16.99h634.58c-7.33-24.53-30.1-42.47-56.99-42.47H189.1z" fill="#5E125C" p-id="10100"></path><path d="M632.49 183.53c-1.21-0.06-1.28 0.63-2.51 0.63H167.47c-53.29 0-76.79 23.84-76.79 74.8v461.95c203.85-200.53 349.93-348.17 541.81-537.38z" fill="#FFFFFF" opacity=".1" p-id="10101"></path><path d="M938.54 630.33H714.51c-5.52 0-10-4.48-10-10V470.45c0-5.52 4.48-10 10-10h227.83v166.08c0.01 2.1-1.7 3.8-3.8 3.8z" fill="#E2696C" p-id="10102"></path><path d="M908.37 664.31H781.41c-56.46 0-102.39-48.56-102.39-108.25 0-57.41 46.7-104.11 104.11-104.11h108.25c9.38 0 16.99 7.61 16.99 16.99s-7.61 16.99-16.99 16.99H783.13c-38.67 0-70.13 31.46-70.13 70.13 0 40.26 31.33 74.27 68.41 74.27h126.96c7.78 0 16.99-10.52 16.99-19.41V468.94c0-9.38 7.61-16.99 16.99-16.99s16.99 7.61 16.99 16.99v141.98c-0.01 27.94-24.3 53.39-50.97 53.39z" fill="#5E125C" p-id="10103"></path><path d="M789.45 553.89m-33.98 0a33.98 33.98 0 1 0 67.96 0 33.98 33.98 0 1 0-67.96 0Z" fill="#FFC963" p-id="10104"></path></svg>